<?xml version="1.0" standalone="no"?>
<!DOCTYPE svg PUBLIC "-//W3C//DTD SVG 20010904//EN"
 "http://www.w3.org/TR/2001/REC-SVG-20010904/DTD/svg10.dtd">
<svg version="1.0" xmlns="http://www.w3.org/2000/svg"
 width="230.000000pt" height="230.000000pt" viewBox="0 0 230.000000 230.000000"
 preserveAspectRatio="xMidYMid meet">
<metadata>
Created by potrace 1.14, written by Peter Selinger 2001-2017
</metadata>
<g transform="translate(0.000000,230.000000) scale(0.100000,-0.100000)"
fill="#000000" stroke="none">
<path d="M974 2176 c-232 -44 -406 -136 -570 -300 -197 -196 -298 -425 -311
-702 -10 -203 25 -362 118 -544 143 -281 406 -481 723 -552 117 -26 316 -27
431 -3 431 91 765 433 840 864 21 120 19 273 -6 394 -43 214 -129 376 -284
533 -149 152 -300 240 -494 291 -119 31 -336 40 -447 19z m221 -731 c109 -19
196 -55 324 -134 91 -56 104 -61 158 -61 121 -1 357 -58 404 -97 37 -31 37
-59 3 -170 -22 -68 -32 -86 -51 -94 -53 -20 -60 -14 -59 49 2 183 -208 278
-345 155 -49 -44 -73 -107 -67 -170 3 -27 9 -56 13 -65 7 -17 -16 -18 -399
-18 l-407 0 12 22 c7 13 12 48 12 79 0 178 -206 273 -339 156 -55 -47 -77
-100 -72 -169 5 -64 5 -64 -57 -47 -72 18 -96 31 -110 60 -20 38 -20 133 0
149 11 9 15 32 15 81 0 83 11 93 110 104 52 6 97 22 221 81 86 41 185 81 220
89 88 19 306 19 414 0z m-541 -365 c55 -27 79 -63 84 -125 7 -82 -39 -148
-115 -165 -145 -34 -251 138 -156 251 50 59 118 73 187 39z m1182 -1 c55 -26
84 -72 84 -133 0 -148 -166 -216 -267 -110 -54 58 -56 145 -6 205 51 60 117
73 189 38z"/>
<path d="M865 1413 c-94 -19 -174 -60 -202 -102 -42 -62 -43 -61 172 -61 l195
0 0 29 c0 15 -3 56 -6 90 l-7 61 -41 -1 c-23 0 -72 -7 -111 -16z"/>
<path d="M1071 1403 c6 -16 16 -55 23 -88 l12 -60 149 -3 150 -2 11 25 c11 23
9 26 -35 54 -71 46 -154 79 -223 91 -97 15 -99 15 -87 -17z"/>
<path d="M538 1035 c-31 -17 -58 -62 -58 -95 0 -56 47 -99 108 -100 92 0 136
102 75 170 -34 37 -85 47 -125 25z"/>
<path d="M1723 1036 c-52 -23 -77 -90 -52 -139 19 -38 51 -57 97 -57 35 0 49
6 73 29 80 81 -14 213 -118 167z"/>
</g>
</svg>
